<svg width="28" height="22" viewBox="0 0 28 22" fill="none" xmlns="http://www.w3.org/2000/svg">
<rect x="0.5" y="0.5" width="27" height="21" rx="4.5" stroke="#BBBBBB"/>
<path d="M12.7792 12.808L11.4292 9.31C11.3892 9.206 11.3472 9.086 11.3032 8.95C11.2592 8.81 11.2172 8.662 11.1772 8.506C11.0932 8.83 11.0072 9.1 10.9192 9.316L9.56923 12.808H12.7792ZM15.2032 16H14.3032C14.1992 16 14.1152 15.974 14.0512 15.922C13.9872 15.87 13.9392 15.804 13.9072 15.724L13.1032 13.648H9.24523L8.44123 15.724C8.41723 15.796 8.37123 15.86 8.30323 15.916C8.23523 15.972 8.15123 16 8.05123 16H7.15123L10.5892 7.402H11.7652L15.2032 16ZM17.1629 7.162V16H16.0949V7.162H17.1629ZM19.9988 7.162V16H18.9308V7.162H19.9988Z" fill="#DEDEDE"/>
</svg>
