<svg width="58" height="22" viewBox="0 0 58 22" fill="none" xmlns="http://www.w3.org/2000/svg">
<rect x="0.5" y="0.5" width="57" height="21" rx="4.5" stroke="#767E9E"/>
<path d="M12.9726 11.808L11.6226 8.31C11.5826 8.206 11.5406 8.086 11.4966 7.95C11.4526 7.81 11.4106 7.662 11.3706 7.506C11.2866 7.83 11.2006 8.1 11.1126 8.316L9.76259 11.808H12.9726ZM15.3966 15H14.4966C14.3926 15 14.3086 14.974 14.2446 14.922C14.1806 14.87 14.1326 14.804 14.1006 14.724L13.2966 12.648H9.43859L8.63459 14.724C8.61059 14.796 8.56459 14.86 8.49659 14.916C8.42859 14.972 8.34459 15 8.24459 15H7.34459L10.7826 6.402H11.9586L15.3966 15ZM17.2663 10.14C17.4583 9.724 17.6943 9.4 17.9743 9.168C18.2543 8.932 18.5963 8.814 19.0003 8.814C19.1283 8.814 19.2503 8.828 19.3663 8.856C19.4863 8.884 19.5923 8.928 19.6843 8.988L19.6063 9.786C19.5823 9.886 19.5223 9.936 19.4263 9.936C19.3703 9.936 19.2883 9.924 19.1803 9.9C19.0723 9.876 18.9503 9.864 18.8143 9.864C18.6223 9.864 18.4503 9.892 18.2983 9.948C18.1503 10.004 18.0163 10.088 17.8963 10.2C17.7803 10.308 17.6743 10.444 17.5783 10.608C17.4863 10.768 17.4023 10.952 17.3263 11.16V15H16.2523V8.922H16.8643C16.9803 8.922 17.0603 8.944 17.1043 8.988C17.1483 9.032 17.1783 9.108 17.1943 9.216L17.2663 10.14ZM22.4893 15.096C22.0093 15.096 21.6393 14.962 21.3793 14.694C21.1233 14.426 20.9953 14.04 20.9953 13.536V9.816H20.2633C20.1993 9.816 20.1453 9.798 20.1013 9.762C20.0573 9.722 20.0353 9.662 20.0353 9.582V9.156L21.0313 9.03L21.2773 7.152C21.2893 7.092 21.3153 7.044 21.3553 7.008C21.3993 6.968 21.4553 6.948 21.5233 6.948H22.0633V9.042H23.8213V9.816H22.0633V13.464C22.0633 13.72 22.1253 13.91 22.2493 14.034C22.3733 14.158 22.5333 14.22 22.7293 14.22C22.8413 14.22 22.9373 14.206 23.0173 14.178C23.1013 14.146 23.1733 14.112 23.2333 14.076C23.2933 14.04 23.3433 14.008 23.3833 13.98C23.4273 13.948 23.4653 13.932 23.4973 13.932C23.5533 13.932 23.6033 13.966 23.6473 14.034L23.9593 14.544C23.7753 14.716 23.5533 14.852 23.2933 14.952C23.0333 15.048 22.7653 15.096 22.4893 15.096ZM33.3061 8.922L31.3381 15H30.4921C30.3881 15 30.3161 14.932 30.2761 14.796L28.9321 10.674C28.9001 10.582 28.8741 10.49 28.8541 10.398C28.8341 10.302 28.8141 10.208 28.7941 10.116C28.7741 10.208 28.7541 10.302 28.7341 10.398C28.7141 10.49 28.6881 10.584 28.6561 10.68L27.2881 14.796C27.2521 14.932 27.1721 15 27.0481 15H26.2441L24.2761 8.922H25.1161C25.2001 8.922 25.2701 8.944 25.3261 8.988C25.3861 9.032 25.4261 9.084 25.4461 9.144L26.6101 13.056C26.6781 13.344 26.7321 13.616 26.7721 13.872C26.8081 13.74 26.8441 13.606 26.8801 13.47C26.9201 13.334 26.9621 13.196 27.0061 13.056L28.2901 9.12C28.3101 9.06 28.3441 9.01 28.3921 8.97C28.4441 8.93 28.5061 8.91 28.5781 8.91H29.0461C29.1261 8.91 29.1921 8.93 29.2441 8.97C29.2961 9.01 29.3321 9.06 29.3521 9.12L30.6061 13.056C30.6501 13.196 30.6901 13.334 30.7261 13.47C30.7621 13.606 30.7961 13.74 30.8281 13.872C30.8481 13.74 30.8721 13.608 30.9001 13.476C30.9321 13.34 30.9661 13.2 31.0021 13.056L32.1901 9.144C32.2101 9.08 32.2481 9.028 32.3041 8.988C32.3601 8.944 32.4261 8.922 32.5021 8.922H33.3061ZM36.826 8.826C37.27 8.826 37.67 8.9 38.026 9.048C38.382 9.196 38.686 9.406 38.938 9.678C39.19 9.95 39.382 10.28 39.514 10.668C39.65 11.052 39.718 11.482 39.718 11.958C39.718 12.438 39.65 12.87 39.514 13.254C39.382 13.638 39.19 13.966 38.938 14.238C38.686 14.51 38.382 14.72 38.026 14.868C37.67 15.012 37.27 15.084 36.826 15.084C36.378 15.084 35.974 15.012 35.614 14.868C35.258 14.72 34.954 14.51 34.702 14.238C34.45 13.966 34.256 13.638 34.12 13.254C33.988 12.87 33.922 12.438 33.922 11.958C33.922 11.482 33.988 11.052 34.12 10.668C34.256 10.28 34.45 9.95 34.702 9.678C34.954 9.406 35.258 9.196 35.614 9.048C35.974 8.9 36.378 8.826 36.826 8.826ZM36.826 14.25C37.426 14.25 37.874 14.05 38.17 13.65C38.466 13.246 38.614 12.684 38.614 11.964C38.614 11.24 38.466 10.676 38.17 10.272C37.874 9.868 37.426 9.666 36.826 9.666C36.522 9.666 36.256 9.718 36.028 9.822C35.804 9.926 35.616 10.076 35.464 10.272C35.316 10.468 35.204 10.71 35.128 10.998C35.056 11.282 35.02 11.604 35.02 11.964C35.02 12.684 35.168 13.246 35.464 13.65C35.764 14.05 36.218 14.25 36.826 14.25ZM42.0866 10.14C42.2786 9.724 42.5146 9.4 42.7946 9.168C43.0746 8.932 43.4166 8.814 43.8206 8.814C43.9486 8.814 44.0706 8.828 44.1866 8.856C44.3066 8.884 44.4126 8.928 44.5046 8.988L44.4266 9.786C44.4026 9.886 44.3426 9.936 44.2466 9.936C44.1906 9.936 44.1086 9.924 44.0006 9.9C43.8926 9.876 43.7706 9.864 43.6346 9.864C43.4426 9.864 43.2706 9.892 43.1186 9.948C42.9706 10.004 42.8366 10.088 42.7166 10.2C42.6006 10.308 42.4946 10.444 42.3986 10.608C42.3066 10.768 42.2226 10.952 42.1466 11.16V15H41.0726V8.922H41.6846C41.8006 8.922 41.8806 8.944 41.9246 8.988C41.9686 9.032 41.9986 9.108 42.0146 9.216L42.0866 10.14ZM46.5177 6.162V11.364H46.7937C46.8737 11.364 46.9397 11.354 46.9917 11.334C47.0477 11.31 47.1057 11.264 47.1657 11.196L49.0857 9.138C49.1417 9.07 49.1997 9.018 49.2597 8.982C49.3237 8.942 49.4077 8.922 49.5117 8.922H50.4777L48.2397 11.304C48.1317 11.44 48.0157 11.546 47.8917 11.622C47.9637 11.67 48.0277 11.726 48.0837 11.79C48.1437 11.85 48.1997 11.92 48.2517 12L50.6277 15H49.6737C49.5817 15 49.5017 14.986 49.4337 14.958C49.3697 14.926 49.3137 14.87 49.2657 14.79L47.2677 12.3C47.2077 12.216 47.1477 12.162 47.0877 12.138C47.0317 12.11 46.9437 12.096 46.8237 12.096H46.5177V15H45.4437V6.162H46.5177Z" fill="#767E9E"/>
</svg>
