<svg width="105" height="13" viewBox="0 0 105 13" fill="none" xmlns="http://www.w3.org/2000/svg">
<path d="M6.604 6.727C6.656 6.727 6.70583 6.74 6.7535 6.766C6.80117 6.792 6.84233 6.8245 6.877 6.8635L7.54 7.546C7.306 7.871 6.99833 8.118 6.617 8.287C6.24 8.45167 5.80233 8.534 5.304 8.534C4.86633 8.534 4.46983 8.456 4.1145 8.3C3.7635 8.13967 3.4645 7.923 3.2175 7.65C2.9705 7.37267 2.77983 7.04983 2.6455 6.6815C2.51117 6.31317 2.444 5.91667 2.444 5.492C2.444 5.05 2.522 4.64483 2.678 4.2765C2.834 3.90383 3.04633 3.58317 3.315 3.3145C3.588 3.0415 3.9065 2.83133 4.2705 2.684C4.6345 2.53233 5.02667 2.4565 5.447 2.4565C5.94533 2.4565 6.37433 2.54317 6.734 2.7165C7.09367 2.88983 7.384 3.1065 7.605 3.3665L7.072 4.075C7.03733 4.10967 6.994 4.15083 6.942 4.1985C6.89 4.24183 6.82067 4.2635 6.734 4.2635C6.64733 4.2635 6.5715 4.244 6.5065 4.205C6.44583 4.166 6.3765 4.12267 6.2985 4.075C6.2205 4.02733 6.123 3.984 6.006 3.945C5.89333 3.906 5.74167 3.8865 5.551 3.8865C5.11333 3.8865 4.78183 4.03167 4.5565 4.322C4.3355 4.608 4.225 4.998 4.225 5.492C4.225 5.752 4.25317 5.98167 4.3095 6.181C4.37017 6.38033 4.4525 6.54717 4.5565 6.6815C4.6605 6.81583 4.784 6.91767 4.927 6.987C5.07433 7.05633 5.23467 7.091 5.408 7.091C5.61167 7.091 5.772 7.07367 5.889 7.039C6.01033 7 6.11 6.95883 6.188 6.9155C6.266 6.87217 6.33317 6.831 6.3895 6.792C6.44583 6.753 6.51733 6.73133 6.604 6.727ZM0.468 5.5115C0.468 5.06517 0.524333 4.63617 0.637 4.2245C0.754 3.81283 0.9165 3.42933 1.1245 3.074C1.33683 2.71433 1.59033 2.38717 1.885 2.0925C2.17967 1.79783 2.50683 1.5465 2.8665 1.3385C3.22617 1.12617 3.60967 0.963666 4.017 0.850999C4.42867 0.734 4.85767 0.6755 5.304 0.6755C5.75033 0.6755 6.17933 0.734 6.591 0.850999C7.007 0.963666 7.39267 1.12617 7.748 1.3385C8.10767 1.5465 8.43483 1.79783 8.7295 2.0925C9.0285 2.38717 9.282 2.71433 9.49 3.074C9.70233 3.42933 9.86483 3.81283 9.9775 4.2245C10.0945 4.63617 10.153 5.06517 10.153 5.5115C10.153 5.9535 10.0945 6.38033 9.9775 6.792C9.86483 7.20367 9.70233 7.58933 9.49 7.949C9.282 8.30433 9.0285 8.62933 8.7295 8.924C8.43483 9.21867 8.10767 9.47217 7.748 9.6845C7.39267 9.8925 7.007 10.055 6.591 10.172C6.17933 10.2847 5.75033 10.341 5.304 10.341C4.85767 10.341 4.42867 10.2847 4.017 10.172C3.60967 10.055 3.22617 9.8925 2.8665 9.6845C2.50683 9.47217 2.17967 9.21867 1.885 8.924C1.59033 8.62933 1.33683 8.30433 1.1245 7.949C0.9165 7.58933 0.754 7.20583 0.637 6.7985C0.524333 6.38683 0.468 5.95783 0.468 5.5115ZM1.547 5.5115C1.547 6.06183 1.64233 6.57533 1.833 7.052C2.028 7.52867 2.2945 7.94467 2.6325 8.3C2.9705 8.651 3.367 8.92833 3.822 9.132C4.28133 9.33133 4.77533 9.431 5.304 9.431C5.837 9.431 6.33317 9.33133 6.7925 9.132C7.25617 8.92833 7.65917 8.651 8.0015 8.3C8.34383 7.94467 8.6125 7.52867 8.8075 7.052C9.0025 6.57533 9.1 6.06183 9.1 5.5115C9.1 5.14317 9.0545 4.79 8.9635 4.452C8.87683 4.114 8.75117 3.79983 8.5865 3.5095C8.42617 3.21483 8.23117 2.94833 8.0015 2.71C7.77183 2.46733 7.51617 2.2615 7.2345 2.0925C6.95283 1.9235 6.6495 1.7935 6.3245 1.7025C5.9995 1.60717 5.65933 1.5595 5.304 1.5595C4.77533 1.5595 4.28133 1.66133 3.822 1.865C3.367 2.06867 2.9705 2.35033 2.6325 2.71C2.2945 3.06533 2.028 3.4835 1.833 3.9645C1.64233 4.4455 1.547 4.96117 1.547 5.5115ZM20.9343 7.7995C20.9863 7.7995 21.0383 7.81033 21.0903 7.832C21.1423 7.84933 21.1921 7.88183 21.2398 7.9295L22.1108 8.846C21.7294 9.34433 21.2506 9.72133 20.6743 9.977C20.1023 10.2283 19.4241 10.354 18.6398 10.354C17.9204 10.354 17.2748 10.2327 16.7028 9.99C16.1351 9.743 15.6519 9.405 15.2533 8.976C14.8589 8.54267 14.5556 8.03133 14.3433 7.442C14.1309 6.84833 14.0248 6.20483 14.0248 5.5115C14.0248 4.80517 14.1396 4.15733 14.3693 3.568C14.5989 2.97433 14.9218 2.463 15.3378 2.034C15.7538 1.605 16.2521 1.27133 16.8328 1.033C17.4134 0.794666 18.0526 0.6755 18.7503 0.6755C19.1056 0.6755 19.4393 0.708 19.7513 0.773C20.0676 0.833666 20.3623 0.920333 20.6353 1.033C20.9083 1.14133 21.1596 1.2735 21.3893 1.4295C21.6189 1.5855 21.8226 1.7545 22.0003 1.9365L21.2593 2.931C21.2116 2.99167 21.1553 3.048 21.0903 3.1C21.0253 3.14767 20.9343 3.1715 20.8173 3.1715C20.7393 3.1715 20.6656 3.15417 20.5963 3.1195C20.5269 3.08483 20.4533 3.04367 20.3753 2.996C20.2973 2.944 20.2106 2.88983 20.1153 2.8335C20.0243 2.77283 19.9138 2.71867 19.7838 2.671C19.6581 2.619 19.5086 2.57567 19.3353 2.541C19.1663 2.50633 18.9669 2.489 18.7373 2.489C18.3733 2.489 18.0396 2.55617 17.7363 2.6905C17.4373 2.82483 17.1773 3.022 16.9563 3.282C16.7396 3.53767 16.5706 3.854 16.4493 4.231C16.3323 4.60367 16.2738 5.0305 16.2738 5.5115C16.2738 5.99683 16.3388 6.428 16.4688 6.805C16.6031 7.182 16.7829 7.5005 17.0083 7.7605C17.2379 8.01617 17.5044 8.21117 17.8078 8.3455C18.1111 8.47983 18.4361 8.547 18.7828 8.547C18.9821 8.547 19.1641 8.53833 19.3288 8.521C19.4934 8.49933 19.6473 8.46683 19.7903 8.4235C19.9333 8.37583 20.0676 8.31517 20.1933 8.2415C20.3189 8.1635 20.4468 8.066 20.5768 7.949C20.6288 7.90567 20.6851 7.871 20.7458 7.845C20.8064 7.81467 20.8693 7.7995 20.9343 7.7995ZM25.8032 3.4055C26.3145 3.4055 26.7803 3.48567 27.2007 3.646C27.621 3.80633 27.9807 4.036 28.2797 4.335C28.583 4.634 28.817 4.998 28.9817 5.427C29.1507 5.85167 29.2352 6.3305 29.2352 6.8635C29.2352 7.40083 29.1507 7.88617 28.9817 8.3195C28.817 8.7485 28.583 9.11467 28.2797 9.418C27.9807 9.717 27.621 9.94883 27.2007 10.1135C26.7803 10.2738 26.3145 10.354 25.8032 10.354C25.2875 10.354 24.8173 10.2738 24.3927 10.1135C23.9723 9.94883 23.6083 9.717 23.3007 9.418C22.9973 9.11467 22.7612 8.7485 22.5922 8.3195C22.4275 7.88617 22.3452 7.40083 22.3452 6.8635C22.3452 6.3305 22.4275 5.85167 22.5922 5.427C22.7612 4.998 22.9973 4.634 23.3007 4.335C23.6083 4.036 23.9723 3.80633 24.3927 3.646C24.8173 3.48567 25.2875 3.4055 25.8032 3.4055ZM25.8032 8.859C26.2668 8.859 26.607 8.6965 26.8237 8.3715C27.0447 8.04217 27.1552 7.54383 27.1552 6.8765C27.1552 6.20917 27.0447 5.713 26.8237 5.388C26.607 5.063 26.2668 4.9005 25.8032 4.9005C25.3265 4.9005 24.9777 5.063 24.7567 5.388C24.5357 5.713 24.4252 6.20917 24.4252 6.8765C24.4252 7.54383 24.5357 8.04217 24.7567 8.3715C24.9777 8.6965 25.3265 8.859 25.8032 8.859ZM30.2499 12.3885V3.5095H31.4979C31.7492 3.5095 31.9139 3.62217 31.9919 3.8475L32.1414 4.3415C32.2714 4.1985 32.41 4.0685 32.5574 3.9515C32.709 3.8345 32.8694 3.73483 33.0384 3.6525C33.2117 3.56583 33.3959 3.49867 33.5909 3.451C33.7902 3.40333 34.0069 3.3795 34.2409 3.3795C34.5919 3.3795 34.9169 3.4575 35.2159 3.6135C35.5149 3.7695 35.7727 3.99483 35.9894 4.2895C36.2061 4.58417 36.3751 4.946 36.4964 5.375C36.622 5.79967 36.6849 6.28283 36.6849 6.8245C36.6849 7.3315 36.6134 7.7995 36.4704 8.2285C36.3317 8.6575 36.1346 9.03017 35.8789 9.3465C35.6275 9.66283 35.3242 9.90983 34.9689 10.0875C34.6179 10.2652 34.2279 10.354 33.7989 10.354C33.4479 10.354 33.1532 10.3042 32.9149 10.2045C32.6765 10.1048 32.4599 9.9705 32.2649 9.8015V12.3885H30.2499ZM33.5389 4.92C33.3915 4.92 33.2572 4.93517 33.1359 4.9655C33.0189 4.9915 32.9084 5.0305 32.8044 5.0825C32.7047 5.1345 32.6115 5.20167 32.5249 5.284C32.4382 5.362 32.3515 5.453 32.2649 5.557V8.417C32.4165 8.586 32.5812 8.70517 32.7589 8.7745C32.9365 8.8395 33.1229 8.872 33.3179 8.872C33.5042 8.872 33.6754 8.83517 33.8314 8.7615C33.9874 8.68783 34.1217 8.57083 34.2344 8.4105C34.3514 8.24583 34.4424 8.0335 34.5074 7.7735C34.5724 7.5135 34.6049 7.19717 34.6049 6.8245C34.6049 6.46917 34.5789 6.17017 34.5269 5.9275C34.4749 5.68483 34.4012 5.48983 34.3059 5.3425C34.2149 5.19083 34.1044 5.0825 33.9744 5.0175C33.8444 4.9525 33.6992 4.92 33.5389 4.92ZM40.3258 11.9985C40.2651 12.1328 40.1915 12.2303 40.1048 12.291C40.0181 12.356 39.8795 12.3885 39.6888 12.3885H38.1808L39.4808 9.6585L36.7898 3.5095H38.5708C38.7268 3.5095 38.846 3.54417 38.9283 3.6135C39.015 3.68283 39.0778 3.76517 39.1168 3.8605L40.2218 6.766C40.3258 7.03467 40.4103 7.30333 40.4753 7.572C40.5186 7.43333 40.5641 7.29683 40.6118 7.1625C40.6638 7.02383 40.7158 6.88733 40.7678 6.753L41.7688 3.8605C41.8078 3.76083 41.8771 3.6785 41.9768 3.6135C42.0765 3.54417 42.1848 3.5095 42.3018 3.5095H43.9268L40.3258 11.9985ZM44.5194 10.25V3.5095H45.7154C45.8151 3.5095 45.8974 3.51817 45.9624 3.5355C46.0317 3.55283 46.0881 3.581 46.1314 3.62C46.1791 3.65467 46.2137 3.70233 46.2354 3.763C46.2614 3.82367 46.2831 3.89733 46.3004 3.984L46.3979 4.556C46.6102 4.192 46.8507 3.906 47.1194 3.698C47.3924 3.48567 47.7044 3.3795 48.0554 3.3795C48.3587 3.3795 48.6057 3.451 48.7964 3.594L48.6664 5.076C48.6447 5.17133 48.6079 5.23633 48.5559 5.271C48.5082 5.30567 48.4411 5.323 48.3544 5.323C48.3197 5.323 48.2742 5.32083 48.2179 5.3165C48.1616 5.31217 48.1031 5.30783 48.0424 5.3035C47.9817 5.29483 47.9189 5.28833 47.8539 5.284C47.7932 5.27533 47.7369 5.271 47.6849 5.271C47.3902 5.271 47.1541 5.35117 46.9764 5.5115C46.8031 5.6675 46.6557 5.88417 46.5344 6.1615V10.25H44.5194ZM51.5438 3.5095V10.25H49.5288V3.5095H51.5438ZM51.7518 1.6635C51.7518 1.82383 51.7193 1.9755 51.6543 2.1185C51.5893 2.25717 51.5004 2.38067 51.3878 2.489C51.2751 2.593 51.1429 2.6775 50.9913 2.7425C50.8439 2.80317 50.6858 2.8335 50.5168 2.8335C50.3521 2.8335 50.1983 2.80317 50.0553 2.7425C49.9123 2.6775 49.7844 2.593 49.6718 2.489C49.5634 2.38067 49.4768 2.25717 49.4118 2.1185C49.3511 1.9755 49.3208 1.82383 49.3208 1.6635C49.3208 1.49883 49.3511 1.345 49.4118 1.202C49.4768 1.059 49.5634 0.933333 49.6718 0.825C49.7844 0.716666 49.9123 0.632166 50.0553 0.571499C50.1983 0.510833 50.3521 0.4805 50.5168 0.4805C50.6858 0.4805 50.8439 0.510833 50.9913 0.571499C51.1429 0.632166 51.2751 0.716666 51.3878 0.825C51.5004 0.933333 51.5893 1.059 51.6543 1.202C51.7193 1.345 51.7518 1.49883 51.7518 1.6635ZM55.5166 3.3925C55.8026 3.3925 56.0713 3.42067 56.3226 3.477C56.5783 3.53333 56.8144 3.6135 57.0311 3.7175H59.0656V4.452C59.0656 4.56467 59.0331 4.6535 58.9681 4.7185C58.9074 4.7835 58.8013 4.83333 58.6496 4.868L58.1556 4.9785C58.2163 5.1735 58.2466 5.375 58.2466 5.583C58.2466 5.921 58.1751 6.22433 58.0321 6.493C57.8934 6.76167 57.7006 6.99133 57.4536 7.182C57.2109 7.36833 56.9228 7.5135 56.5891 7.6175C56.2554 7.71717 55.8979 7.767 55.5166 7.767C55.3043 7.767 55.1049 7.754 54.9186 7.728C54.7713 7.81467 54.6976 7.91433 54.6976 8.027C54.6976 8.13967 54.7583 8.222 54.8796 8.274C55.0009 8.32167 55.1613 8.35633 55.3606 8.378C55.5599 8.39533 55.7853 8.40833 56.0366 8.417C56.2923 8.42133 56.5523 8.4365 56.8166 8.4625C57.0809 8.48417 57.3388 8.52317 57.5901 8.5795C57.8458 8.63583 58.0733 8.72683 58.2726 8.8525C58.4719 8.97817 58.6323 9.14717 58.7536 9.3595C58.8749 9.5675 58.9356 9.834 58.9356 10.159C58.9356 10.4623 58.8619 10.7592 58.7146 11.0495C58.5673 11.3398 58.3506 11.5977 58.0646 11.823C57.7786 12.0483 57.4276 12.2282 57.0116 12.3625C56.5956 12.5012 56.1189 12.5705 55.5816 12.5705C55.0529 12.5705 54.5958 12.5207 54.2101 12.421C53.8288 12.3213 53.5103 12.1892 53.2546 12.0245C53.0033 11.8642 52.8169 11.6778 52.6956 11.4655C52.5743 11.2532 52.5136 11.0322 52.5136 10.8025C52.5136 10.5035 52.6003 10.2543 52.7736 10.055C52.9469 9.85567 53.1896 9.69533 53.5016 9.574C53.3369 9.47433 53.2069 9.3465 53.1116 9.1905C53.0163 9.0345 52.9686 8.833 52.9686 8.586C52.9686 8.48633 52.9859 8.38233 53.0206 8.274C53.0553 8.16133 53.1094 8.053 53.1831 7.949C53.2568 7.845 53.3499 7.74533 53.4626 7.65C53.5753 7.55467 53.7096 7.47017 53.8656 7.3965C53.5146 7.21017 53.2373 6.96317 53.0336 6.6555C52.8343 6.34783 52.7346 5.99033 52.7346 5.583C52.7346 5.245 52.8061 4.94167 52.9491 4.673C53.0921 4.4 53.2871 4.17033 53.5341 3.984C53.7854 3.79333 54.0801 3.64817 54.4181 3.5485C54.7561 3.4445 55.1223 3.3925 55.5166 3.3925ZM57.0766 10.497C57.0766 10.3367 57.0051 10.2218 56.8621 10.1525C56.7191 10.0788 56.5328 10.029 56.3031 10.003C56.0734 9.97267 55.8156 9.95533 55.5296 9.951C55.2436 9.94233 54.9598 9.92283 54.6781 9.8925C54.5524 9.97917 54.4506 10.0767 54.3726 10.185C54.2946 10.289 54.2556 10.4082 54.2556 10.5425C54.2556 10.6378 54.2751 10.7245 54.3141 10.8025C54.3574 10.8805 54.4311 10.9477 54.5351 11.004C54.6391 11.0603 54.7778 11.1037 54.9511 11.134C55.1288 11.1687 55.3519 11.186 55.6206 11.186C55.9109 11.186 56.1493 11.1687 56.3356 11.134C56.5219 11.0993 56.6693 11.0517 56.7776 10.991C56.8903 10.9303 56.9683 10.8567 57.0116 10.77C57.0549 10.6877 57.0766 10.5967 57.0766 10.497ZM55.5166 6.5255C55.8503 6.5255 56.0908 6.44317 56.2381 6.2785C56.3898 6.1095 56.4656 5.89283 56.4656 5.6285C56.4656 5.3555 56.3898 5.141 56.2381 4.985C56.0908 4.829 55.8503 4.751 55.5166 4.751C55.1829 4.751 54.9403 4.829 54.7886 4.985C54.6413 5.141 54.5676 5.3555 54.5676 5.6285C54.5676 5.7585 54.5849 5.87767 54.6196 5.986C54.6586 6.09433 54.7171 6.18967 54.7951 6.272C54.8731 6.35 54.9706 6.41283 55.0876 6.4605C55.2089 6.50383 55.3519 6.5255 55.5166 6.5255ZM59.9061 10.25V0.519499H61.9211V4.101C62.1638 3.893 62.426 3.72617 62.7076 3.6005C62.9936 3.4705 63.3338 3.4055 63.7281 3.4055C64.0965 3.4055 64.4215 3.4705 64.7031 3.6005C64.9891 3.72617 65.2296 3.90383 65.4246 4.1335C65.6196 4.35883 65.767 4.62967 65.8666 4.946C65.9663 5.258 66.0161 5.59817 66.0161 5.9665V10.25H64.0011V5.9665C64.0011 5.63717 63.9253 5.3815 63.7736 5.1995C63.622 5.01317 63.3988 4.92 63.1041 4.92C62.8831 4.92 62.6751 4.96767 62.4801 5.063C62.2851 5.15833 62.0988 5.28617 61.9211 5.4465V10.25H59.9061ZM69.6428 10.354C69.3222 10.354 69.0383 10.3085 68.7913 10.2175C68.5487 10.1222 68.3428 9.99 68.1738 9.821C68.0092 9.64767 67.8835 9.43967 67.7968 9.197C67.7102 8.95433 67.6668 8.6835 67.6668 8.3845V4.9005H67.0948C66.9908 4.9005 66.902 4.868 66.8283 4.803C66.7547 4.73367 66.7178 4.634 66.7178 4.504V3.7175L67.7903 3.5095L68.1868 1.865C68.2388 1.657 68.3862 1.553 68.6288 1.553H69.6818V3.5225H71.3523V4.9005H69.6818V8.248C69.6818 8.404 69.7187 8.534 69.7923 8.638C69.8703 8.73767 69.9808 8.7875 70.1238 8.7875C70.1975 8.7875 70.2582 8.781 70.3058 8.768C70.3578 8.75067 70.4012 8.73333 70.4358 8.716C70.4748 8.69433 70.5095 8.677 70.5398 8.664C70.5745 8.64667 70.6135 8.638 70.6568 8.638C70.7175 8.638 70.7652 8.65317 70.7998 8.6835C70.8388 8.7095 70.8778 8.75283 70.9168 8.8135L71.5278 9.769C71.2678 9.964 70.9753 10.1113 70.6503 10.211C70.3253 10.3063 69.9895 10.354 69.6428 10.354ZM78.4209 0.6755C78.8889 0.6755 79.3092 0.744833 79.6819 0.883499C80.0589 1.01783 80.3795 1.20633 80.6439 1.449C80.9082 1.69167 81.1097 1.982 81.2484 2.32C81.3914 2.65367 81.4629 3.022 81.4629 3.425C81.4629 3.77167 81.413 4.09233 81.3134 4.387C81.218 4.68167 81.0859 4.96333 80.9169 5.232C80.7479 5.49633 80.5507 5.75417 80.3254 6.0055C80.1044 6.2525 79.8682 6.50383 79.6169 6.7595L77.7644 8.6575C78.0027 8.58817 78.2367 8.534 78.4664 8.495C78.7004 8.45167 78.9192 8.43 79.1229 8.43H80.8909C81.1075 8.43 81.2787 8.49067 81.4044 8.612C81.53 8.729 81.5929 8.885 81.5929 9.08V10.25H74.9369V9.6C74.9369 9.47433 74.9629 9.34 75.0149 9.197C75.0669 9.054 75.1579 8.924 75.2879 8.807L78.0179 6.0575C78.2519 5.8235 78.4555 5.60033 78.6289 5.388C78.8022 5.17567 78.9452 4.96767 79.0579 4.764C79.1705 4.556 79.255 4.35017 79.3114 4.1465C79.3677 3.9385 79.3959 3.71967 79.3959 3.49C79.3959 3.113 79.3049 2.82483 79.1229 2.6255C78.9452 2.42183 78.6722 2.32 78.3039 2.32C78.0049 2.32 77.7514 2.40017 77.5434 2.5605C77.3397 2.7165 77.1989 2.9115 77.1209 3.1455C77.0299 3.38383 76.9107 3.542 76.7634 3.62C76.616 3.698 76.4059 3.71533 76.1329 3.672L75.0669 3.4835C75.1362 3.01117 75.2684 2.5995 75.4634 2.2485C75.6627 1.8975 75.9075 1.605 76.1979 1.371C76.4925 1.137 76.8284 0.963666 77.2054 0.850999C77.5824 0.734 77.9875 0.6755 78.4209 0.6755ZM89.3679 5.5115C89.3679 6.33917 89.2791 7.05633 89.1014 7.663C88.9237 8.26967 88.6767 8.77233 88.3604 9.171C88.0484 9.56967 87.6757 9.8665 87.2424 10.0615C86.8134 10.2565 86.3476 10.354 85.8449 10.354C85.3422 10.354 84.8764 10.2565 84.4474 10.0615C84.0227 9.8665 83.6544 9.56967 83.3424 9.171C83.0304 8.77233 82.7856 8.26967 82.6079 7.663C82.4346 7.05633 82.3479 6.33917 82.3479 5.5115C82.3479 4.68383 82.4346 3.96667 82.6079 3.36C82.7856 2.75333 83.0304 2.25067 83.3424 1.852C83.6544 1.45333 84.0227 1.15867 84.4474 0.967999C84.8764 0.773 85.3422 0.6755 85.8449 0.6755C86.3476 0.6755 86.8134 0.773 87.2424 0.967999C87.6757 1.15867 88.0484 1.45333 88.3604 1.852C88.6767 2.25067 88.9237 2.75333 89.1014 3.36C89.2791 3.96667 89.3679 4.68383 89.3679 5.5115ZM87.2879 5.5115C87.2879 4.85717 87.2467 4.322 87.1644 3.906C87.0821 3.48567 86.9716 3.15633 86.8329 2.918C86.6986 2.67967 86.5447 2.51717 86.3714 2.4305C86.1981 2.3395 86.0226 2.294 85.8449 2.294C85.6672 2.294 85.4917 2.3395 85.3184 2.4305C85.1494 2.51717 84.9977 2.67967 84.8634 2.918C84.7334 3.15633 84.6272 3.48567 84.5449 3.906C84.4669 4.322 84.4279 4.85717 84.4279 5.5115C84.4279 6.17017 84.4669 6.7075 84.5449 7.1235C84.6272 7.5395 84.7334 7.86883 84.8634 8.1115C84.9977 8.34983 85.1494 8.5145 85.3184 8.6055C85.4917 8.69217 85.6672 8.7355 85.8449 8.7355C86.0226 8.7355 86.1981 8.69217 86.3714 8.6055C86.5447 8.5145 86.6986 8.34983 86.8329 8.1115C86.9716 7.86883 87.0821 7.5395 87.1644 7.1235C87.2467 6.7075 87.2879 6.17017 87.2879 5.5115ZM91.0654 8.794H92.8854V4.0165C92.8854 3.7825 92.8919 3.53767 92.9049 3.282L91.8324 4.1725C91.7371 4.24617 91.6417 4.29167 91.5464 4.309C91.4554 4.322 91.3687 4.322 91.2864 4.309C91.2041 4.29167 91.1304 4.2635 91.0654 4.2245C91.0004 4.18117 90.9527 4.13783 90.9224 4.0945L90.2854 3.2495L93.2364 0.773H94.9004V8.794H96.4604V10.25H91.0654V8.794ZM101.096 0.6755C101.564 0.6755 101.98 0.742666 102.344 0.877C102.708 1.007 103.016 1.18467 103.267 1.41C103.518 1.63533 103.709 1.8975 103.839 2.1965C103.969 2.49117 104.034 2.80317 104.034 3.1325C104.034 3.4315 104.004 3.69583 103.943 3.9255C103.882 4.15083 103.791 4.348 103.67 4.517C103.553 4.68167 103.406 4.8225 103.228 4.9395C103.055 5.0565 102.855 5.154 102.63 5.232C103.679 5.596 104.203 6.30883 104.203 7.3705C104.203 7.87317 104.112 8.31083 103.93 8.6835C103.748 9.05617 103.503 9.366 103.195 9.613C102.892 9.86 102.539 10.0463 102.136 10.172C101.733 10.2933 101.313 10.354 100.875 10.354C100.424 10.354 100.023 10.3063 99.6724 10.211C99.3214 10.1113 99.0094 9.95967 98.7364 9.756C98.4634 9.548 98.2229 9.28367 98.0149 8.963C97.8113 8.64233 97.6336 8.261 97.4819 7.819L98.3789 7.455C98.6129 7.364 98.8296 7.34017 99.0289 7.3835C99.2283 7.42683 99.3713 7.5265 99.4579 7.6825C99.6529 8.04217 99.8588 8.30433 100.075 8.469C100.296 8.62933 100.554 8.7095 100.849 8.7095C101.074 8.7095 101.269 8.67267 101.434 8.599C101.603 8.521 101.742 8.4235 101.85 8.3065C101.963 8.18517 102.047 8.04867 102.103 7.897C102.16 7.74533 102.188 7.5915 102.188 7.4355C102.188 7.23183 102.173 7.04983 102.142 6.8895C102.116 6.72483 102.038 6.584 101.908 6.467C101.778 6.35 101.581 6.26117 101.317 6.2005C101.057 6.1355 100.693 6.103 100.225 6.103V4.712C100.619 4.712 100.938 4.68167 101.18 4.621C101.423 4.56033 101.609 4.478 101.739 4.374C101.874 4.26567 101.963 4.13567 102.006 3.984C102.049 3.83233 102.071 3.6655 102.071 3.4835C102.071 3.11083 101.98 2.82483 101.798 2.6255C101.62 2.42183 101.347 2.32 100.979 2.32C100.68 2.32 100.426 2.40017 100.218 2.5605C100.015 2.7165 99.8739 2.9115 99.7959 3.1455C99.7049 3.38383 99.5858 3.542 99.4384 3.62C99.2911 3.698 99.0809 3.71533 98.8079 3.672L97.7419 3.4835C97.8113 3.01117 97.9434 2.5995 98.1384 2.2485C98.3378 1.8975 98.5826 1.605 98.8729 1.371C99.1676 1.137 99.5034 0.963666 99.8804 0.850999C100.257 0.734 100.663 0.6755 101.096 0.6755Z" fill="#666D89"/>
</svg>
