<svg width="95" height="22" viewBox="0 0 95 22" fill="none" xmlns="http://www.w3.org/2000/svg">
<rect x="0.5" y="0.5" width="94" height="21" rx="4.5" stroke="#767E9E"/>
<path d="M15.3808 10.866V14.166C14.9488 14.478 14.4868 14.712 13.9948 14.868C13.5068 15.02 12.9708 15.096 12.3868 15.096C11.6948 15.096 11.0708 14.99 10.5148 14.778C9.95883 14.562 9.48283 14.262 9.08683 13.878C8.69483 13.49 8.39283 13.026 8.18083 12.486C7.96883 11.946 7.86283 11.352 7.86283 10.704C7.86283 10.048 7.96483 9.45 8.16883 8.91C8.37683 8.37 8.67083 7.908 9.05083 7.524C9.43083 7.136 9.89283 6.836 10.4368 6.624C10.9808 6.412 11.5888 6.306 12.2608 6.306C12.6008 6.306 12.9168 6.332 13.2088 6.384C13.5008 6.432 13.7708 6.504 14.0188 6.6C14.2668 6.692 14.4968 6.806 14.7088 6.942C14.9208 7.074 15.1188 7.224 15.3028 7.392L14.9728 7.92C14.9208 8 14.8528 8.052 14.7688 8.076C14.6888 8.096 14.5988 8.076 14.4988 8.016C14.4028 7.96 14.2928 7.892 14.1688 7.812C14.0448 7.732 13.8928 7.656 13.7128 7.584C13.5368 7.508 13.3268 7.444 13.0828 7.392C12.8428 7.34 12.5568 7.314 12.2248 7.314C11.7408 7.314 11.3028 7.394 10.9108 7.554C10.5188 7.71 10.1848 7.936 9.90883 8.232C9.63283 8.524 9.42083 8.88 9.27283 9.3C9.12483 9.716 9.05083 10.184 9.05083 10.704C9.05083 11.244 9.12683 11.728 9.27883 12.156C9.43483 12.58 9.65483 12.942 9.93883 13.242C10.2268 13.538 10.5748 13.764 10.9828 13.92C11.3908 14.076 11.8488 14.154 12.3568 14.154C12.7568 14.154 13.1108 14.11 13.4188 14.022C13.7308 13.93 14.0348 13.804 14.3308 13.644V11.754H12.9928C12.9168 11.754 12.8548 11.732 12.8068 11.688C12.7628 11.644 12.7408 11.59 12.7408 11.526V10.866H15.3808ZM17.8307 10.14C18.0227 9.724 18.2587 9.4 18.5387 9.168C18.8187 8.932 19.1607 8.814 19.5647 8.814C19.6927 8.814 19.8147 8.828 19.9307 8.856C20.0507 8.884 20.1567 8.928 20.2487 8.988L20.1707 9.786C20.1467 9.886 20.0867 9.936 19.9907 9.936C19.9347 9.936 19.8527 9.924 19.7447 9.9C19.6367 9.876 19.5147 9.864 19.3787 9.864C19.1867 9.864 19.0147 9.892 18.8627 9.948C18.7147 10.004 18.5807 10.088 18.4607 10.2C18.3447 10.308 18.2387 10.444 18.1427 10.608C18.0507 10.768 17.9667 10.952 17.8907 11.16V15H16.8167V8.922H17.4287C17.5447 8.922 17.6247 8.944 17.6687 8.988C17.7127 9.032 17.7427 9.108 17.7587 9.216L17.8307 10.14ZM24.388 12.264C23.896 12.28 23.476 12.32 23.128 12.384C22.784 12.444 22.502 12.524 22.282 12.624C22.066 12.724 21.908 12.842 21.808 12.978C21.712 13.114 21.664 13.266 21.664 13.434C21.664 13.594 21.69 13.732 21.742 13.848C21.794 13.964 21.864 14.06 21.952 14.136C22.044 14.208 22.15 14.262 22.27 14.298C22.394 14.33 22.526 14.346 22.666 14.346C22.854 14.346 23.026 14.328 23.182 14.292C23.338 14.252 23.484 14.196 23.62 14.124C23.76 14.052 23.892 13.966 24.016 13.866C24.144 13.766 24.268 13.652 24.388 13.524V12.264ZM20.938 9.78C21.274 9.456 21.636 9.214 22.024 9.054C22.412 8.894 22.842 8.814 23.314 8.814C23.654 8.814 23.956 8.87 24.22 8.982C24.484 9.094 24.706 9.25 24.886 9.45C25.066 9.65 25.202 9.892 25.294 10.176C25.386 10.46 25.432 10.772 25.432 11.112V15H24.958C24.854 15 24.774 14.984 24.718 14.952C24.662 14.916 24.618 14.848 24.586 14.748L24.466 14.172C24.306 14.32 24.15 14.452 23.998 14.568C23.846 14.68 23.686 14.776 23.518 14.856C23.35 14.932 23.17 14.99 22.978 15.03C22.79 15.074 22.58 15.096 22.348 15.096C22.112 15.096 21.89 15.064 21.682 15C21.474 14.932 21.292 14.832 21.136 14.7C20.984 14.568 20.862 14.402 20.77 14.202C20.682 13.998 20.638 13.758 20.638 13.482C20.638 13.242 20.704 13.012 20.836 12.792C20.968 12.568 21.182 12.37 21.478 12.198C21.774 12.026 22.16 11.886 22.636 11.778C23.112 11.666 23.696 11.602 24.388 11.586V11.112C24.388 10.64 24.286 10.284 24.082 10.044C23.878 9.8 23.58 9.678 23.188 9.678C22.924 9.678 22.702 9.712 22.522 9.78C22.346 9.844 22.192 9.918 22.06 10.002C21.932 10.082 21.82 10.156 21.724 10.224C21.632 10.288 21.54 10.32 21.448 10.32C21.376 10.32 21.314 10.302 21.262 10.266C21.21 10.226 21.166 10.178 21.13 10.122L20.938 9.78ZM28.1329 13.536C28.3289 13.8 28.5429 13.986 28.7749 14.094C29.0069 14.202 29.2669 14.256 29.5549 14.256C30.1229 14.256 30.5589 14.054 30.8629 13.65C31.1669 13.246 31.3189 12.67 31.3189 11.922C31.3189 11.526 31.2829 11.186 31.2109 10.902C31.1429 10.618 31.0429 10.386 30.9109 10.206C30.7789 10.022 30.6169 9.888 30.4249 9.804C30.2329 9.72 30.0149 9.678 29.7709 9.678C29.4229 9.678 29.1169 9.758 28.8529 9.918C28.5929 10.078 28.3529 10.304 28.1329 10.596V13.536ZM28.0789 9.864C28.3349 9.548 28.6309 9.294 28.9669 9.102C29.3029 8.91 29.6869 8.814 30.1189 8.814C30.4709 8.814 30.7889 8.882 31.0729 9.018C31.3569 9.15 31.5989 9.348 31.7989 9.612C31.9989 9.872 32.1529 10.196 32.2609 10.584C32.3689 10.972 32.4229 11.418 32.4229 11.922C32.4229 12.37 32.3629 12.788 32.2429 13.176C32.1229 13.56 31.9489 13.894 31.7209 14.178C31.4969 14.458 31.2209 14.68 30.8929 14.844C30.5689 15.004 30.2029 15.084 29.7949 15.084C29.4229 15.084 29.1029 15.022 28.8349 14.898C28.5709 14.77 28.3369 14.594 28.1329 14.37V17.058H27.0589V8.922H27.7009C27.8529 8.922 27.9469 8.996 27.9829 9.144L28.0789 9.864ZM34.8595 9.732C35.1195 9.456 35.4075 9.236 35.7235 9.072C36.0395 8.908 36.4035 8.826 36.8155 8.826C37.1475 8.826 37.4395 8.882 37.6915 8.994C37.9475 9.102 38.1595 9.258 38.3275 9.462C38.4995 9.662 38.6295 9.904 38.7175 10.188C38.8055 10.472 38.8495 10.786 38.8495 11.13V15H37.7755V11.13C37.7755 10.67 37.6695 10.314 37.4575 10.062C37.2495 9.806 36.9315 9.678 36.5035 9.678C36.1875 9.678 35.8915 9.754 35.6155 9.906C35.3435 10.058 35.0915 10.264 34.8595 10.524V15H33.7855V6.162H34.8595V9.732ZM41.6049 8.922V15H40.5369V8.922H41.6049ZM41.8329 7.014C41.8329 7.118 41.8109 7.216 41.7669 7.308C41.7269 7.396 41.6709 7.476 41.5989 7.548C41.5309 7.616 41.4489 7.67 41.3529 7.71C41.2609 7.75 41.1629 7.77 41.0589 7.77C40.9549 7.77 40.8569 7.75 40.7649 7.71C40.6769 7.67 40.5989 7.616 40.5309 7.548C40.4629 7.476 40.4089 7.396 40.3689 7.308C40.3289 7.216 40.3089 7.118 40.3089 7.014C40.3089 6.91 40.3289 6.812 40.3689 6.72C40.4089 6.624 40.4629 6.542 40.5309 6.474C40.5989 6.402 40.6769 6.346 40.7649 6.306C40.8569 6.266 40.9549 6.246 41.0589 6.246C41.1629 6.246 41.2609 6.266 41.3529 6.306C41.4489 6.346 41.5309 6.402 41.5989 6.474C41.6709 6.542 41.7269 6.624 41.7669 6.72C41.8109 6.812 41.8329 6.91 41.8329 7.014ZM47.5897 10.002C47.5577 10.046 47.5257 10.08 47.4937 10.104C47.4617 10.128 47.4177 10.14 47.3617 10.14C47.3017 10.14 47.2357 10.116 47.1637 10.068C47.0917 10.016 47.0017 9.96 46.8937 9.9C46.7897 9.84 46.6597 9.786 46.5037 9.738C46.3517 9.686 46.1637 9.66 45.9397 9.66C45.6397 9.66 45.3757 9.714 45.1477 9.822C44.9197 9.926 44.7277 10.078 44.5717 10.278C44.4197 10.478 44.3037 10.72 44.2237 11.004C44.1477 11.288 44.1097 11.606 44.1097 11.958C44.1097 12.326 44.1517 12.654 44.2357 12.942C44.3197 13.226 44.4377 13.466 44.5897 13.662C44.7457 13.854 44.9317 14.002 45.1477 14.106C45.3677 14.206 45.6137 14.256 45.8857 14.256C46.1457 14.256 46.3597 14.226 46.5277 14.166C46.6957 14.102 46.8337 14.032 46.9417 13.956C47.0537 13.88 47.1457 13.812 47.2177 13.752C47.2937 13.688 47.3677 13.656 47.4397 13.656C47.5277 13.656 47.5957 13.69 47.6437 13.758L47.9437 14.148C47.8117 14.312 47.6617 14.452 47.4937 14.568C47.3257 14.684 47.1437 14.782 46.9477 14.862C46.7557 14.938 46.5537 14.994 46.3417 15.03C46.1297 15.066 45.9137 15.084 45.6937 15.084C45.3137 15.084 44.9597 15.014 44.6317 14.874C44.3077 14.734 44.0257 14.532 43.7857 14.268C43.5457 14 43.3577 13.672 43.2217 13.284C43.0857 12.896 43.0177 12.454 43.0177 11.958C43.0177 11.506 43.0797 11.088 43.2037 10.704C43.3317 10.32 43.5157 9.99 43.7557 9.714C43.9997 9.434 44.2977 9.216 44.6497 9.06C45.0057 8.904 45.4137 8.826 45.8737 8.826C46.3017 8.826 46.6777 8.896 47.0017 9.036C47.3297 9.172 47.6197 9.366 47.8717 9.618L47.5897 10.002ZM59.8645 10.704C59.8645 11.348 59.7625 11.934 59.5585 12.462C59.3545 12.99 59.0665 13.442 58.6945 13.818C58.3225 14.194 57.8745 14.486 57.3505 14.694C56.8305 14.898 56.2545 15 55.6225 15H52.4125V6.402H55.6225C56.2545 6.402 56.8305 6.506 57.3505 6.714C57.8745 6.918 58.3225 7.21 58.6945 7.59C59.0665 7.966 59.3545 8.418 59.5585 8.946C59.7625 9.474 59.8645 10.06 59.8645 10.704ZM58.6705 10.704C58.6705 10.176 58.5985 9.704 58.4545 9.288C58.3105 8.872 58.1065 8.52 57.8425 8.232C57.5785 7.944 57.2585 7.724 56.8825 7.572C56.5065 7.42 56.0865 7.344 55.6225 7.344H53.5765V14.058H55.6225C56.0865 14.058 56.5065 13.982 56.8825 13.83C57.2585 13.678 57.5785 13.46 57.8425 13.176C58.1065 12.888 58.3105 12.536 58.4545 12.12C58.5985 11.704 58.6705 11.232 58.6705 10.704ZM65.2753 11.298C65.2753 11.05 65.2393 10.824 65.1673 10.62C65.0993 10.412 64.9973 10.234 64.8613 10.086C64.7293 9.934 64.5673 9.818 64.3753 9.738C64.1833 9.654 63.9653 9.612 63.7213 9.612C63.2093 9.612 62.8033 9.762 62.5033 10.062C62.2073 10.358 62.0233 10.77 61.9513 11.298H65.2753ZM66.1393 14.148C66.0073 14.308 65.8493 14.448 65.6653 14.568C65.4813 14.684 65.2833 14.78 65.0713 14.856C64.8633 14.932 64.6473 14.988 64.4233 15.024C64.1993 15.064 63.9773 15.084 63.7573 15.084C63.3373 15.084 62.9493 15.014 62.5933 14.874C62.2413 14.73 61.9353 14.522 61.6753 14.25C61.4193 13.974 61.2193 13.634 61.0753 13.23C60.9313 12.826 60.8593 12.362 60.8593 11.838C60.8593 11.414 60.9233 11.018 61.0513 10.65C61.1833 10.282 61.3713 9.964 61.6153 9.696C61.8593 9.424 62.1573 9.212 62.5093 9.06C62.8613 8.904 63.2573 8.826 63.6973 8.826C64.0613 8.826 64.3973 8.888 64.7053 9.012C65.0173 9.132 65.2853 9.308 65.5093 9.54C65.7373 9.768 65.9153 10.052 66.0433 10.392C66.1713 10.728 66.2353 11.112 66.2353 11.544C66.2353 11.712 66.2173 11.824 66.1813 11.88C66.1453 11.936 66.0773 11.964 65.9773 11.964H61.9153C61.9273 12.348 61.9793 12.682 62.0713 12.966C62.1673 13.25 62.2993 13.488 62.4673 13.68C62.6353 13.868 62.8353 14.01 63.0673 14.106C63.2993 14.198 63.5593 14.244 63.8473 14.244C64.1153 14.244 64.3453 14.214 64.5373 14.154C64.7333 14.09 64.9013 14.022 65.0413 13.95C65.1813 13.878 65.2973 13.812 65.3893 13.752C65.4853 13.688 65.5673 13.656 65.6353 13.656C65.7233 13.656 65.7913 13.69 65.8393 13.758L66.1393 14.148ZM71.0872 9.924C71.0392 10.012 70.9652 10.056 70.8652 10.056C70.8052 10.056 70.7372 10.034 70.6612 9.99C70.5852 9.946 70.4912 9.898 70.3792 9.846C70.2712 9.79 70.1412 9.74 69.9892 9.696C69.8372 9.648 69.6572 9.624 69.4492 9.624C69.2692 9.624 69.1072 9.648 68.9632 9.696C68.8192 9.74 68.6952 9.802 68.5912 9.882C68.4912 9.962 68.4132 10.056 68.3572 10.164C68.3052 10.268 68.2792 10.382 68.2792 10.506C68.2792 10.662 68.3232 10.792 68.4112 10.896C68.5032 11 68.6232 11.09 68.7712 11.166C68.9192 11.242 69.0872 11.31 69.2752 11.37C69.4632 11.426 69.6552 11.488 69.8512 11.556C70.0512 11.62 70.2452 11.692 70.4332 11.772C70.6212 11.852 70.7892 11.952 70.9372 12.072C71.0852 12.192 71.2032 12.34 71.2912 12.516C71.3832 12.688 71.4292 12.896 71.4292 13.14C71.4292 13.42 71.3792 13.68 71.2792 13.92C71.1792 14.156 71.0312 14.362 70.8352 14.538C70.6392 14.71 70.3992 14.846 70.1152 14.946C69.8312 15.046 69.5032 15.096 69.1312 15.096C68.7072 15.096 68.3232 15.028 67.9792 14.892C67.6352 14.752 67.3432 14.574 67.1032 14.358L67.3552 13.95C67.3872 13.898 67.4252 13.858 67.4692 13.83C67.5132 13.802 67.5692 13.788 67.6372 13.788C67.7092 13.788 67.7852 13.816 67.8652 13.872C67.9452 13.928 68.0412 13.99 68.1532 14.058C68.2692 14.126 68.4092 14.188 68.5732 14.244C68.7372 14.3 68.9412 14.328 69.1852 14.328C69.3932 14.328 69.5752 14.302 69.7312 14.25C69.8872 14.194 70.0172 14.12 70.1212 14.028C70.2252 13.936 70.3012 13.83 70.3492 13.71C70.4012 13.59 70.4272 13.462 70.4272 13.326C70.4272 13.158 70.3812 13.02 70.2892 12.912C70.2012 12.8 70.0832 12.706 69.9352 12.63C69.7872 12.55 69.6172 12.482 69.4252 12.426C69.2372 12.366 69.0432 12.304 68.8432 12.24C68.6472 12.176 68.4532 12.104 68.2612 12.024C68.0732 11.94 67.9052 11.836 67.7572 11.712C67.6092 11.588 67.4892 11.436 67.3972 11.256C67.3092 11.072 67.2652 10.85 67.2652 10.59C67.2652 10.358 67.3132 10.136 67.4092 9.924C67.5052 9.708 67.6452 9.52 67.8292 9.36C68.0132 9.196 68.2392 9.066 68.5072 8.97C68.7752 8.874 69.0812 8.826 69.4252 8.826C69.8252 8.826 70.1832 8.89 70.4992 9.018C70.8192 9.142 71.0952 9.314 71.3272 9.534L71.0872 9.924ZM73.8666 8.922V15H72.7986V8.922H73.8666ZM74.0946 7.014C74.0946 7.118 74.0726 7.216 74.0286 7.308C73.9886 7.396 73.9326 7.476 73.8606 7.548C73.7926 7.616 73.7106 7.67 73.6146 7.71C73.5226 7.75 73.4246 7.77 73.3206 7.77C73.2166 7.77 73.1186 7.75 73.0266 7.71C72.9386 7.67 72.8606 7.616 72.7926 7.548C72.7246 7.476 72.6706 7.396 72.6306 7.308C72.5906 7.216 72.5706 7.118 72.5706 7.014C72.5706 6.91 72.5906 6.812 72.6306 6.72C72.6706 6.624 72.7246 6.542 72.7926 6.474C72.8606 6.402 72.9386 6.346 73.0266 6.306C73.1186 6.266 73.2166 6.246 73.3206 6.246C73.4246 6.246 73.5226 6.266 73.6146 6.306C73.7106 6.346 73.7926 6.402 73.8606 6.474C73.9326 6.542 73.9886 6.624 74.0286 6.72C74.0726 6.812 74.0946 6.91 74.0946 7.014ZM77.7394 12.03C77.9554 12.03 78.1454 12 78.3094 11.94C78.4734 11.88 78.6114 11.796 78.7234 11.688C78.8354 11.58 78.9194 11.452 78.9754 11.304C79.0314 11.152 79.0594 10.986 79.0594 10.806C79.0594 10.434 78.9454 10.138 78.7174 9.918C78.4934 9.698 78.1674 9.588 77.7394 9.588C77.3074 9.588 76.9774 9.698 76.7494 9.918C76.5254 10.138 76.4134 10.434 76.4134 10.806C76.4134 10.986 76.4414 11.152 76.4974 11.304C76.5574 11.452 76.6434 11.58 76.7554 11.688C76.8674 11.796 77.0054 11.88 77.1694 11.94C77.3334 12 77.5234 12.03 77.7394 12.03ZM79.6654 15.33C79.6654 15.182 79.6234 15.062 79.5394 14.97C79.4554 14.878 79.3414 14.806 79.1974 14.754C79.0574 14.702 78.8934 14.666 78.7054 14.646C78.5174 14.622 78.3174 14.604 78.1054 14.592C77.8974 14.58 77.6854 14.568 77.4694 14.556C77.2534 14.544 77.0454 14.524 76.8454 14.496C76.6214 14.6 76.4374 14.732 76.2934 14.892C76.1534 15.048 76.0834 15.232 76.0834 15.444C76.0834 15.58 76.1174 15.706 76.1854 15.822C76.2574 15.942 76.3654 16.044 76.5094 16.128C76.6534 16.216 76.8334 16.284 77.0494 16.332C77.2694 16.384 77.5274 16.41 77.8234 16.41C78.1114 16.41 78.3694 16.384 78.5974 16.332C78.8254 16.28 79.0174 16.206 79.1734 16.11C79.3334 16.014 79.4554 15.9 79.5394 15.768C79.6234 15.636 79.6654 15.49 79.6654 15.33ZM80.7514 9.162V9.558C80.7514 9.69 80.6674 9.774 80.4994 9.81L79.8094 9.9C79.9454 10.164 80.0134 10.456 80.0134 10.776C80.0134 11.072 79.9554 11.342 79.8394 11.586C79.7274 11.826 79.5714 12.032 79.3714 12.204C79.1714 12.376 78.9314 12.508 78.6514 12.6C78.3714 12.692 78.0674 12.738 77.7394 12.738C77.4554 12.738 77.1874 12.704 76.9354 12.636C76.8074 12.716 76.7094 12.802 76.6414 12.894C76.5734 12.982 76.5394 13.072 76.5394 13.164C76.5394 13.308 76.5974 13.418 76.7134 13.494C76.8334 13.566 76.9894 13.618 77.1814 13.65C77.3734 13.682 77.5914 13.702 77.8354 13.71C78.0834 13.718 78.3354 13.732 78.5914 13.752C78.8514 13.768 79.1034 13.798 79.3474 13.842C79.5954 13.886 79.8154 13.958 80.0074 14.058C80.1994 14.158 80.3534 14.296 80.4694 14.472C80.5894 14.648 80.6494 14.876 80.6494 15.156C80.6494 15.416 80.5834 15.668 80.4514 15.912C80.3234 16.156 80.1374 16.372 79.8934 16.56C79.6494 16.752 79.3494 16.904 78.9934 17.016C78.6414 17.132 78.2434 17.19 77.7994 17.19C77.3554 17.19 76.9674 17.146 76.6354 17.058C76.3034 16.97 76.0274 16.852 75.8074 16.704C75.5874 16.556 75.4214 16.384 75.3094 16.188C75.2014 15.996 75.1474 15.794 75.1474 15.582C75.1474 15.282 75.2414 15.028 75.4294 14.82C75.6174 14.612 75.8754 14.446 76.2034 14.322C76.0234 14.242 75.8794 14.136 75.7714 14.004C75.6674 13.868 75.6154 13.686 75.6154 13.458C75.6154 13.37 75.6314 13.28 75.6634 13.188C75.6954 13.092 75.7434 12.998 75.8074 12.906C75.8754 12.81 75.9574 12.72 76.0534 12.636C76.1494 12.552 76.2614 12.478 76.3894 12.414C76.0894 12.246 75.8554 12.024 75.6874 11.748C75.5194 11.468 75.4354 11.144 75.4354 10.776C75.4354 10.48 75.4914 10.212 75.6034 9.972C75.7194 9.728 75.8794 9.522 76.0834 9.354C76.2874 9.182 76.5294 9.05 76.8094 8.958C77.0934 8.866 77.4034 8.82 77.7394 8.82C78.0034 8.82 78.2494 8.85 78.4774 8.91C78.7054 8.966 78.9134 9.05 79.1014 9.162H80.7514ZM82.8638 9.804C82.9958 9.656 83.1358 9.522 83.2838 9.402C83.4318 9.282 83.5878 9.18 83.7518 9.096C83.9198 9.008 84.0958 8.942 84.2798 8.898C84.4678 8.85 84.6698 8.826 84.8858 8.826C85.2178 8.826 85.5098 8.882 85.7618 8.994C86.0178 9.102 86.2298 9.258 86.3978 9.462C86.5698 9.662 86.6998 9.904 86.7878 10.188C86.8758 10.472 86.9198 10.786 86.9198 11.13V15H85.8458V11.13C85.8458 10.67 85.7398 10.314 85.5278 10.062C85.3198 9.806 85.0018 9.678 84.5738 9.678C84.2578 9.678 83.9618 9.754 83.6858 9.906C83.4138 10.058 83.1618 10.264 82.9298 10.524V15H81.8558V8.922H82.4978C82.6498 8.922 82.7438 8.996 82.7798 9.144L82.8638 9.804Z" fill="#767E9E"/>
</svg>
